# xmcd
#
# Track frame offsets:
#	182
#	15147
#	31817
#	49365
#	63747
#	78660
#	94070
#	109047
#	127487
#	141220
#
# Disc length: 2120 seconds
#
# Revision: 3
# Processed by: cddbd v1.5.2PL0 Copyright (c) Steve Scherf et al.
# Submitted via: audiograbber 1.83.01
#
DISCID=8908460a
DTITLE=Michelle Wright - For Me It's You
DYEAR=1996
DGENRE=Country
TTITLE0=Nobody's Girl
TTITLE1=The Answer Is Yes
TTITLE2=We've Tried Everything Else
TTITLE3=I'm Not Afraid
TTITLE4=What Love Looks Like
TTITLE5=You Owe Me
TTITLE6=For Me It's You
TTITLE7=Cold Kisses
TTITLE8=Crank My Tractor
TTITLE9=Love Has No Pride
EXTD=YEAR: 1994 ID3G: 2
EXTT0=
EXTT1=
EXTT2=
EXTT3=
EXTT4=
EXTT5=
EXTT6=
EXTT7=
EXTT8=
EXTT9=
PLAYORDER=
